<svg id="Laag_1" data-name="Laag 1" xmlns="http://www.w3.org/2000/svg" viewBox="0 0 14.32 13.95"><g id="passkey"><g id="Group_2" data-name="Group 2"><g id="Group_1" data-name="Group 1"><path id="Path_3" data-name="Path 3" d="M10.25.8A4.72,4.72,0,0,0,5.47,5.44a4.93,4.93,0,0,0,.11.94L5,6.64A.29.29,0,0,0,4.91,7,.13.13,0,0,0,5,7.1l.38.38-.3.29H4.58a.3.3,0,0,0-.3.29h0v.46l-.42.41H3.39a.29.29,0,0,0-.3.29v.46l-.42.41H2.19a.29.29,0,0,0-.29.29v.46L.79,11.92a.29.29,0,0,0-.09.21v2.32a.3.3,0,0,0,.3.29H3.39a.32.32,0,0,0,.21-.08l4.56-4.45.39.38a.31.31,0,0,0,.42,0,.22.22,0,0,0,0-.08L9.29,10a4.76,4.76,0,0,0,5.63-3.61A4.65,4.65,0,0,0,11.21.89,5.2,5.2,0,0,0,10.25.8ZM9.2,9.38a.3.3,0,0,0-.34.15l-.19.36-.3-.29A.29.29,0,0,0,8,9.6H8L3.26,14.16h-2V12.25l1.1-1.08a.27.27,0,0,0,.09-.2v-.3h.3A.32.32,0,0,0,3,10.59L3.6,10a.32.32,0,0,0,.08-.21V9.51H4a.3.3,0,0,0,.21-.08l.6-.58a.29.29,0,0,0,.09-.21V8.35h.3a.32.32,0,0,0,.21-.08L6,7.68a.28.28,0,0,0,0-.41H6L5.68,7l.37-.19a.29.29,0,0,0,.16-.33,4,4,0,0,1,3-4.95,4.18,4.18,0,0,1,5.09,2.91,4,4,0,0,1,.13,1,4.1,4.1,0,0,1-4.14,4.07A4.32,4.32,0,0,1,9.2,9.38Z" transform="translate(-0.7 -0.8)"/><path id="Path_4" data-name="Path 4" d="M11.74,2.54A1.47,1.47,0,0,0,10.25,4a1.49,1.49,0,0,0,3,0h0A1.47,1.47,0,0,0,11.74,2.54Zm0,2.32a.89.89,0,0,1-.9-.87.9.9,0,1,1,.9.87Z" transform="translate(-0.7 -0.8)"/><path id="Path_5" data-name="Path 5" d="M6.75,8.44,2.58,12.5a.28.28,0,0,0,0,.41.29.29,0,0,0,.42,0L7.18,8.85a.3.3,0,0,0,0-.41A.3.3,0,0,0,6.75,8.44Z" transform="translate(-0.7 -0.8)"/></g></g></g></svg>