<svg id="Laag_1" data-name="Laag 1" xmlns="http://www.w3.org/2000/svg" viewBox="0 0 19.71 26.37"><defs><style>.cls-1{fill:#e6e7e8;}</style></defs><path id="Path_958" data-name="Path 958" class="cls-1" d="M10.74,27.28H2.49C1.19,27.28.9,27,.9,25.67c0-1.84-.14-3.69.64-5.45a7.89,7.89,0,0,1,4.17-4.16,1.74,1.74,0,0,1,1.29,0,8.26,8.26,0,0,0,7.47,0,1.72,1.72,0,0,1,1.3,0,7.84,7.84,0,0,1,4.8,7c.06.87,0,1.75,0,2.62,0,1.32-.29,1.61-1.58,1.61Z" transform="translate(-0.89 -0.92)"/><path id="Path_959" data-name="Path 959" class="cls-1" d="M4.48,7.91A6.26,6.26,0,1,1,16.92,6.45s0,.07,0,.11a14.46,14.46,0,0,1-.12,3.6,6.23,6.23,0,0,1-12.34-1C4.47,8.77,4.48,8.4,4.48,7.91Z" transform="translate(-0.89 -0.92)"/></svg>