<svg id="Laag_1" data-name="Laag 1" xmlns="http://www.w3.org/2000/svg" viewBox="0 0 15 16"><defs><style>.cls-1{fill:none;}</style></defs><rect class="cls-1" x="-3.92" y="-2.23" width="20" height="24"/><path id="Path_1" data-name="Path 1" d="M7.26,7.62a3.79,3.79,0,1,1,3.79-3.78h0A3.79,3.79,0,0,1,7.26,7.62ZM7.26,1A2.84,2.84,0,1,0,10.1,3.84h0A2.84,2.84,0,0,0,7.26,1Z"/><path id="Path_2" data-name="Path 2" d="M13.41,15.19H1.11a.47.47,0,0,1-.47-.47V11.46a1.42,1.42,0,0,1,.65-1.2,11.58,11.58,0,0,1,11.94,0,1.4,1.4,0,0,1,.65,1.2v3.26A.47.47,0,0,1,13.41,15.19ZM1.59,14.24H12.94V11.46a.49.49,0,0,0-.21-.4,10.59,10.59,0,0,0-10.94,0,.46.46,0,0,0-.2.4Z"/></svg>