<svg id="Laag_1" data-name="Laag 1" xmlns="http://www.w3.org/2000/svg" xmlns:xlink="http://www.w3.org/1999/xlink" viewBox="0 0 17 16"><defs><style>.cls-1{fill:none;}.cls-2{clip-path:url(#clip-path);}.cls-3{fill:#be3027;}</style><clipPath id="clip-path"><rect class="cls-1" x="0.08" y="-0.23" width="17" height="16"/></clipPath></defs><rect class="cls-1" x="-1.92" y="-6.23" width="20" height="24"/><g class="cls-2"><path id="Path_954" data-name="Path 954" class="cls-3" d="M5.43,14.81H17V13.27H15.42V1a.76.76,0,0,0-.77-.76H11.58a.76.76,0,0,0-.77.76h0V6.36H9.27V4.82a.76.76,0,0,0-.76-.76H5.43a.76.76,0,0,0-.76.76h0V8.66H2.36a.77.77,0,0,0-.77.77h0v3.84H.06v1.54ZM12.35,1.75h1.53V13.27H12.35V1.75ZM10.81,7.9v5.37H9.27V7.9ZM6.2,5.6H7.74v7.68H6.2V5.6ZM3.13,10.2H4.67v3.08H3.13Z"/></g></svg>