<svg id="Laag_1" data-name="Laag 1" xmlns="http://www.w3.org/2000/svg" xmlns:xlink="http://www.w3.org/1999/xlink" viewBox="0 0 36 35"><defs><style>.cls-1{fill:none;}.cls-2{clip-path:url(#clip-path);}.cls-3{fill:#d8d8d8;}</style><clipPath id="clip-path"><rect class="cls-1" x="1.08" y="0.77" width="34" height="33"/></clipPath></defs><rect class="cls-1" x="0.08" y="0.77" width="20" height="24"/><g class="cls-2"><g id="infographic"><path id="Path_941" data-name="Path 941" class="cls-3" d="M34.05,1.25H2.62a.55.55,0,0,0-.54.55h0V5.05a.54.54,0,0,0,.54.54H3.7V28.35H2.62a.54.54,0,0,0-.54.54v2.17a.54.54,0,0,0,.54.54h13v.54a1.64,1.64,0,0,0,1.63,1.63h2.17A1.62,1.62,0,0,0,21,32.14V31.6h13a.54.54,0,0,0,.54-.54V28.89a.54.54,0,0,0-.54-.54H33V5.59h1.08a.54.54,0,0,0,.54-.54V1.8A.55.55,0,0,0,34.05,1.25ZM20,32.14a.55.55,0,0,1-.54.55H17.25a.55.55,0,0,1-.54-.55V31.6H20Zm13.55-1.62H3.16V29.43H33.51Zm-1.63-2.17H4.79V5.59h27.1ZM33.51,4.51H3.16V2.34H33.51Z"/><path id="Path_942" data-name="Path 942" class="cls-3" d="M25.55,21.3a1.73,1.73,0,0,0,.11.6l-2,1.79a1.59,1.59,0,0,0-1.69.06l-1.89-1.42a1.61,1.61,0,0,0,.08-.48,1.63,1.63,0,1,0-3.25,0,1.48,1.48,0,0,0,.11.62l-2,1.78a1.67,1.67,0,0,0-.79-.22,1.64,1.64,0,0,0-1.53,1.09H8.21v1.08h4.43a1.62,1.62,0,0,0,3.06-1.07l0-.07,2-1.79a1.6,1.6,0,0,0,1.7-.05l1.89,1.42a1.51,1.51,0,0,0-.08.48,1.61,1.61,0,0,0,1.61,1.63,1.63,1.63,0,0,0,1.64-1.62,1.58,1.58,0,0,0-.12-.61l2-1.79a1.57,1.57,0,0,0,.79.22,1.63,1.63,0,1,0-1.63-1.63ZM14.17,26.18a.55.55,0,0,1-.55-.54.55.55,0,0,1,.55-.55.55.55,0,0,1,.54.55h0A.54.54,0,0,1,14.17,26.18Zm4.34-3.79a.55.55,0,0,1-.55-.54.55.55,0,0,1,.55-.55.55.55,0,0,1,.54.55h0A.54.54,0,0,1,18.51,22.39Zm4.33,3.25a.54.54,0,1,1,.54-.54h0a.54.54,0,0,1-.54.54Zm4.88-4.33a.54.54,0,0,1-.54.54.55.55,0,1,1,0-1.09h0a.54.54,0,0,1,.53.54Z"/><path id="Path_945" data-name="Path 945" class="cls-3" d="M16.13,17.51h8.13V16.43H23.17V7.76a.55.55,0,0,0-.54-.55H20.46a.55.55,0,0,0-.54.55v3.79H18.83V10.47a.55.55,0,0,0-.54-.55H16.13a.55.55,0,0,0-.54.55v2.71H14a.54.54,0,0,0-.54.54v2.71H12.33v1.08ZM21,8.3h1.09v8.13H21V8.3Zm-1.08,4.34v3.79H18.83v-3.8ZM16.67,11h1.08v5.42H16.67V11ZM14.5,14.26h1.08v2.17H14.5Z"/></g></g></svg>