<?xml version="1.0" encoding="utf-8"?>
<!-- Svg Vector Icons : http://www.onlinewebfonts.com/icon -->
<!DOCTYPE svg PUBLIC "-//W3C//DTD SVG 1.1//EN" "http://www.w3.org/Graphics/SVG/1.1/DTD/svg11.dtd">
<svg version="1.1" xmlns="http://www.w3.org/2000/svg" xmlns:xlink="http://www.w3.org/1999/xlink" x="0px" y="0px" viewBox="0 0 1000 1000" enable-background="new 0 0 1000 1000" xml:space="preserve">
<metadata> Svg Vector Icons : http://www.onlinewebfonts.com/icon </metadata>
<g><g transform="translate(0.000000,512.000000) scale(0.100000,-0.100000)"><path d="M279,4997.2c-78.6-34.5-159.1-132.2-172.5-208.9c-5.7-34.5-7.7-1744.1-5.7-3802.4l5.7-3741.1l40.2-51.7c21.1-28.7,63.2-70.9,92-92c51.7-40.2,69-40.2,1855.2-46l1801.5-3.8l-11.5,42.2c-21.1,69-82.4,379.5-97.7,481l-11.5,90.1H2241.5H710.2V424.3v2759.8h3373.1h3373.1v-918v-919.9l92-11.5c99.7-15.3,410.1-76.7,479.1-97.7l42.2-11.5l-3.8,1801.6c-5.7,1786.2-5.7,1803.5-46,1855.2c-21.1,28.8-63.3,70.9-92,92l-51.7,40.2l-3769.8,3.8C1001.5,5022.1,326.9,5018.2,279,4997.2z M7456.4,4104v-306.7H4083.3H710.2V4104v306.6h3373.1h3373.1V4104z"/><path d="M1323.5,2264.2v-306.6h306.6h306.7v306.6v306.7h-306.7h-306.6V2264.2z"/><path d="M2550.1,2264.2v-306.6h306.6h306.7v306.6v306.7h-306.7h-306.6V2264.2z"/><path d="M3776.6,2264.2v-306.6h306.7h306.7v306.6v306.7h-306.7h-306.7V2264.2z"/><path d="M5003.2,2264.2v-306.6h306.6h306.6v306.6v306.7h-306.6h-306.6V2264.2z"/><path d="M6229.8,2264.2v-306.6h306.7h306.6v306.6v306.7h-306.6h-306.7V2264.2z"/><path d="M1323.5,1037.6V730.9h306.6h306.7v306.7v306.6h-306.7h-306.6V1037.6z"/><path d="M2550.1,1037.6V730.9h306.6h306.7v306.7v306.6h-306.7h-306.6V1037.6z"/><path d="M3776.6,1037.6V730.9h306.7h306.7v306.7v306.6h-306.7h-306.7V1037.6z"/><path d="M5003.2,1037.6V730.9h157.1h155.2l151.4,99.7l149.5,101.6v205.1v207h-306.6h-306.6V1037.6z"/><path d="M6795.2,709.8c-454.2-63.2-921.9-251.1-1286-521.3C5338.6,64,5056.9-217.8,4932.3-388.3C4399.5-1109,4251.9-2050,4533.7-2904.8c80.5-241.5,245.3-555.8,410.1-774.3c419.7-555.8,1000.4-919.9,1707.6-1065.6c243.4-49.8,787.7-46,1038.8,9.6c417.8,92,785.8,256.8,1111.6,502.1c553.9,415.9,918,1000.4,1063.7,1705.7c46,226.2,46,770.5,0,996.6C9633.6-401.8,8811.4,433.9,7699.8,675.3C7492.8,719.4,7002.2,738.6,6795.2,709.8z M7592.5,184.7c440.8-92,806.9-285.6,1130.8-598c325.8-314.3,538.6-703.4,642.1-1174.8c46-205.1,46-667,0-877.8c-195.5-914.2-864.4-1583.1-1778.6-1778.5c-210.8-46-672.7-46-877.8,0c-479.1,105.4-864.4,318.1-1190.2,657.4c-300.9,314.3-490.6,676.5-584.5,1121.2c-46,218.5-46,655.4,0,873.9C5141.2-620.2,5900.2,87,6871.9,213.5C7048.2,236.5,7416.2,221.1,7592.5,184.7z"/><path d="M7025.2-522.5c-70.9-32.6-134.2-99.7-161-170.6c-13.4-34.5-21.1-297.1-21.1-724.5c0-747.5,1.9-758.9,126.5-852.9l70.9-55.6h657.4c636.3,0,657.4,1.9,711.1,40.2c189.7,139.9,187.8,404.4-3.8,515.6c-78.6,47.9-88.2,47.9-513.6,47.9h-433.2l-5.7,515.5c-5.8,486.8-7.7,519.4-46,569.2c-21.1,28.8-61.3,70.9-88.2,90.1C7253.3-499.5,7101.8-486.1,7025.2-522.5z"/><path d="M1323.5-189v-306.6h306.6h306.7V-189v306.6h-306.7h-306.6V-189z"/><path d="M2550.1-189v-306.6h306.6h306.7V-189v306.6h-306.7h-306.6V-189z"/><path d="M3776.6-189v-306.6h207h205.1l101.6,149.5l99.7,151.4v155.2v157.2h-306.7h-306.7V-189z"/><path d="M1323.5-1415.6v-306.6h306.6h306.7v306.6v306.7h-306.7h-306.6V-1415.6z"/><path d="M2550.1-1415.6v-306.6h306.6h306.7v306.6v306.7h-306.7h-306.6V-1415.6z"/></g></g>
</svg>