<svg id="Laag_1" data-name="Laag 1" xmlns="http://www.w3.org/2000/svg" xmlns:xlink="http://www.w3.org/1999/xlink" viewBox="0 0 20 25"><defs><style>.cls-1{fill:none;}.cls-2{clip-path:url(#clip-path);}.cls-3{fill:#be3027;}</style><clipPath id="clip-path"><rect class="cls-1" x="0.08" y="0.77" width="20" height="24"/></clipPath></defs><rect class="cls-1" x="0.08" y="0.77" width="20" height="24"/><g class="cls-2"><g id="download-4"><g id="Group_2244" data-name="Group 2244"><g id="Group_2243" data-name="Group 2243"><path id="Path_872" data-name="Path 872" class="cls-3" d="M19.41,6.06h0L14.28.92a.51.51,0,0,0-.37-.15H1.61A1.54,1.54,0,0,0,.08,2.31v20.5a1.54,1.54,0,0,0,1.53,1.53H18a1.54,1.54,0,0,0,1.54-1.53V6.41A.5.5,0,0,0,19.41,6.06Zm-.88,16.75a.51.51,0,0,1-.52.51H1.61a.51.51,0,0,1-.51-.51V2.31a.51.51,0,0,1,.51-.52H12.38V3.84H3.66a.51.51,0,0,0-.51.52V7.43a.52.52,0,0,0,1,0V4.87h8.2V7.43a.51.51,0,0,0,.51.51h5.64Zm0-15.89H13.4V1.79h.3l4.83,4.83Z"/><path id="Path_873" data-name="Path 873" class="cls-3" d="M12.53,16.3l-2.2,2.2v-9a.52.52,0,0,0-1,0v9L7.1,16.3a.51.51,0,0,0-.72.72L9.45,20.1a.52.52,0,0,0,.33.14h0a.09.09,0,0,0,.07,0h0a.47.47,0,0,0,.27-.12l0,0L13.25,17a.51.51,0,0,0,0-.72.52.52,0,0,0-.73,0Z"/></g></g></g></g></svg>