<svg id="Laag_1" data-name="Laag 1" xmlns="http://www.w3.org/2000/svg" viewBox="0 0 22 9"><defs><style>.cls-1{fill:none;}.cls-2{fill:#8e8e8e;}</style></defs><rect class="cls-1" x="0.08" y="-6.23" width="20" height="24"/><g id="Artboard_6" data-name="Artboard 6"><path id="Path_955" data-name="Path 955" class="cls-2" d="M17.88,2.56a1.62,1.62,0,0,0,.12.61L15.92,5a1.6,1.6,0,0,0-1.72.06L12.27,3.6a1.63,1.63,0,0,0,.09-.49,1.66,1.66,0,1,0-3.2.61L7.09,5.54a1.67,1.67,0,0,0-.81-.22,1.64,1.64,0,0,0-1.55,1.1H.21v1.1H4.73A1.65,1.65,0,0,0,7.84,6.43a.14.14,0,0,0,0-.07L9.89,4.54a1.64,1.64,0,0,0,1.73-.06l1.92,1.44a1.67,1.67,0,0,0-.08.49,1.66,1.66,0,1,0,3.31,0,1.39,1.39,0,0,0-.12-.63L18.73,4a1.65,1.65,0,1,0-.85-1.44Zm-11.6,5A.56.56,0,1,1,6.83,7h0a.55.55,0,0,1-.55.55ZM10.7,3.66a.54.54,0,0,1-.55-.55.55.55,0,0,1,.55-.55.55.55,0,0,1,.55.55h0a.55.55,0,0,1-.55.55ZM15.12,7a.56.56,0,1,1,.55-.56h0a.56.56,0,0,1-.55.56Zm5-4.42a.56.56,0,0,1-1.11,0A.55.55,0,0,1,19.53,2h0a.55.55,0,0,1,.56.55Z"/></g></svg>