<svg xmlns="http://www.w3.org/2000/svg" viewBox="0 0 446.45 446.45"><defs><style>.cls-1{fill:#be3027;}.cls-2{fill:#fff;}.cls-3{fill:#be2f27;}</style></defs><title>Asset 1</title><g id="Layer_2" data-name="Layer 2"><g id="Layer_1-2" data-name="Layer 1"><circle class="cls-1" cx="223.22" cy="223.22" r="223.22"/><path class="cls-2" d="M181.64,114.56a13.81,13.81,0,1,0-13.93-13.74A13.83,13.83,0,0,0,181.64,114.56Zm11.74,17.38c0-6.69-4.85-12-11.72-12S170,125.35,170.05,132l.23,55.64h-.14l0,7.24c0,6.69,4.83,12,11.68,12s11.61-5.43,11.59-12.11l0-7.07h.2ZM97.51,205.65c7,0,12.07-4.33,12-12.8l0-5h.13l-.11-23.43h.29L128,187h0l11.24,13.91c3,3.7,5.27,5.92,11.52,5.89a11.86,11.86,0,0,0,12.31-11.18,12.4,12.4,0,0,0-3-7.87h.15l-.75-.8a.1.1,0,0,1,0,0h0l-22.16-23.46c15.23-2.88,24.76-14.17,24.7-29.78-.09-19.71-14.2-32.73-35.72-32.64l-29.08.12c-6.31,0-12.12,4.35-12.09,12l.32,74h-.13l0,5.8C85.39,201.42,90.49,205.69,97.51,205.65Zm27.87-82.4c6.86,0,12.42,4.28,12.45,11.4,0,6.64-4.41,11.84-12.35,11.87l-16,.07-.11-23.27Zm76.46,63.13,0,7.34c0,6.69,4.83,12,11.71,12s11.65-5.39,11.62-12.08l0-6.53h.13l-.13-29.31c0-8,4.69-18.22,12.74-18.25s12.93,10.12,13,18.14l.12,29.18h0l0,7.06c0,6.66,4.86,12,11.72,12s11.62-5.42,11.59-12.07l0-7.34h-.07l-.19-39.4c-.06-19-12.94-27.28-29.09-27.21-10,0-16.27,3.22-19.94,9a12.6,12.6,0,0,0-11.71-7.38c-6.88,0-11.61,5.37-11.57,12l.21,52.82Zm42.73,75.3,0-7.34c0-6.69-4.86-12-11.76-12s-11.67,5.35-11.65,12.05l0,7.34h0L221.3,295c0,8-4.72,14-12.76,14s-12.86-5.9-12.9-13.91l-.14-34.09h.09l0-7.48c0-6.66-4.81-12-11.68-11.94s-11.65,5.38-11.62,12l0,6.9h-.14l.18,40.89c.08,19,13,27.27,29.1,27.2,10,0,16.29-3.16,20-9A12.52,12.52,0,0,0,233.1,327c6.85,0,11.64-5.4,11.62-12.05l-.24-53.31ZM361,259.38h-.23l0-5.58c0-8.47-5.11-12.73-12.07-12.71s-12,4.34-11.94,12.81l0,5.93h.05l.1,23.26h-.33l-18.81-23.45h-.11l-10.74-13.28c-3-3.68-5.24-5.88-11.5-5.84a11.89,11.89,0,0,0-12.35,11.16,12.62,12.62,0,0,0,3.17,8.1h-.1l.48.5.07.09h0l22.37,23.69c-15.2,2.88-24.67,14.23-24.61,29.79.08,19.74,14.12,32.75,35.67,32.65l29.12-.11c6.28,0,12.09-4.33,12.07-12.11Zm-39.92,64.84c-6.85,0-12.41-4.24-12.44-11.36,0-6.67,4.43-11.89,12.34-11.93l16-.07.1,23.29Zm-55.2,7.64a13.82,13.82,0,1,0,14,13.74A13.77,13.77,0,0,0,265.87,331.86Zm-11.74-17.38c0,6.69,4.83,12,11.72,12s11.64-5.38,11.61-12.05l-.23-54.79H277l0-7.15c0-6.75-4.79-12.14-11.57-12.1s-11.51,5.46-11.49,12.19l0,7.16h0Zm-123.76-80,38.77-.11L317,233.77c22.95-.1,44.21-11.23,44.09-40.84l0-5.88-.22-54.45c0-6.68-4.83-12.07-11.76-12-5.68,0-9.28,4-10.91,7.51-5.25-6.35-11.27-8.85-20.11-8.81-20.4.09-36,18.75-35.93,42.09.06,9.65,2.41,19,7.22,26.24,5.62,8.53,13.46,14.16,25.73,14.11,7.79,0,17.26-1.81,22.31-9h.32c.07,13-6.36,20.64-20.86,20.71L169.05,214l-38.85.08C107.26,214.21,86,225.33,86.12,255l0,5.45h-.21l.23,54.46c0,6.71,4.86,12.06,11.76,12,5.71,0,9.25-3.93,10.85-7.5,5.31,6.4,11.35,8.9,20.16,8.85,20.38-.09,36-18.78,35.94-42.12,0-9.68-2.42-18.93-7.21-26.2h-.1c-5.67-8.34-14.48-13.86-26.52-13.8-7.81,0-16.19,1.86-21.28,9.05h-.27C109.44,242.21,115.81,234.5,130.37,234.45Zm191.25-53.31c-10.39,0-16.11-8.58-16.16-19.88,0-10.72,5.6-19.64,16-19.69s16.07,8.83,16.1,19.56C337.62,172.43,331.93,181.09,321.62,181.14ZM125.39,266.31c10.36,0,16.07,8.57,16.12,19.92,0,10.71-5.6,19.67-16,19.71s-16-8.85-16.09-19.58C109.4,275,115.05,266.35,125.39,266.31Z"/><path class="cls-3" d="M160.55,230.64l-2.74-5.6h-2v5.6H153.1v-14h5.5a4.24,4.24,0,0,1,4.55,4.29,3.79,3.79,0,0,1-2.57,3.69l3.14,6Zm-2.13-11.59h-2.58v3.71h2.58a1.86,1.86,0,1,0,0-3.71Z"/><path class="cls-3" d="M167,230.64v-14h2.74v14Z"/><path class="cls-3" d="M182.25,230.64,176.69,222v8.61H174v-14h2.44L182,225.2v-8.59h2.74v14Z"/><path class="cls-3" d="M197.59,229.16a5.58,5.58,0,0,1-7.74.06c-1.42-1.42-1.38-3.17-1.38-5.6s0-4.17,1.38-5.59a5.37,5.37,0,0,1,9.06,2.95h-2.76a2.38,2.38,0,0,0-2.52-2,2.27,2.27,0,0,0-1.75.75c-.53.59-.67,1.24-.67,3.94s.14,3.37.67,4a2.23,2.23,0,0,0,1.75.73,2.54,2.54,0,0,0,2-.79,2.66,2.66,0,0,0,.63-1.87v-.53h-2.58v-2.28h5.3v2C198.93,226.91,198.58,228.13,197.59,229.16Z"/><path class="cls-3" d="M202.22,226.2v-2.38h6.06v2.38Z"/><path class="cls-3" d="M219.51,230.64l-2.74-5.6h-2v5.6h-2.73v-14h5.49a4.24,4.24,0,0,1,4.55,4.29,3.78,3.78,0,0,1-2.56,3.69l3.13,6Zm-2.13-11.59H214.8v3.71h2.58a1.86,1.86,0,1,0,0-3.71Z"/><path class="cls-3" d="M225.93,230.64v-14h2.74v14Z"/><path class="cls-3" d="M241.22,230.64,235.66,222v8.61h-2.74v-14h2.44l5.56,8.59v-8.59h2.74v14Z"/><path class="cls-3" d="M256.56,229.16a5.59,5.59,0,0,1-7.75.06c-1.41-1.42-1.37-3.17-1.37-5.6s0-4.17,1.37-5.59a5.11,5.11,0,0,1,3.79-1.54,5,5,0,0,1,5.28,4.49h-2.76a2.38,2.38,0,0,0-2.52-2,2.31,2.31,0,0,0-1.76.75c-.53.59-.67,1.24-.67,3.94s.14,3.37.67,4a2.26,2.26,0,0,0,1.76.73,2.57,2.57,0,0,0,2-.79,2.7,2.7,0,0,0,.63-1.87v-.53H252.6v-2.28h5.3v2C257.9,226.91,257.54,228.13,256.56,229.16Z"/><path class="cls-3" d="M261.36,230.64v-2.92h2.94v2.92Z"/><path class="cls-3" d="M276.55,230.64,271,222v8.61h-2.74v-14h2.45l5.55,8.59v-8.59H279v14Z"/><path class="cls-3" d="M288.19,230.75a4.88,4.88,0,0,1-5.17-4.92v-9.22h2.74v9.12a2.44,2.44,0,1,0,4.87,0v-9.12h2.72v9.22A4.88,4.88,0,0,1,288.19,230.75Z"/></g></g></svg>