<svg id="Laag_1" data-name="Laag 1" xmlns="http://www.w3.org/2000/svg" viewBox="0 0 36 35"><defs><style>.cls-1{fill:none;}.cls-2{fill:#d8d8d8;}</style></defs><rect class="cls-1" x="0.08" y="0.77" width="20" height="24"/><g id="Artboard_8" data-name="Artboard 8"><g id="Group_2340" data-name="Group 2340"><g id="Map"><path id="Path_932" data-name="Path 932" class="cls-2" d="M34.05,7.5H32.16a6,6,0,0,0,.26-1.62,4.88,4.88,0,1,0-9.75,0,6,6,0,0,0,.26,1.62H9.62a3.79,3.79,0,0,0-7.54.55V29.72a3.8,3.8,0,0,0,3.79,3.8H34.05a.54.54,0,0,0,.54-.54V8.05a.55.55,0,0,0-.54-.55Zm-6.5-5.42a3.8,3.8,0,0,1,3.79,3.8c0,2.44-2.72,6.34-3.79,7.77-1.07-1.43-3.79-5.33-3.79-7.77a3.79,3.79,0,0,1,3.79-3.79Zm-24.39,6a2.71,2.71,0,0,1,5.42-.11V27.07A3.78,3.78,0,0,0,3.23,27l-.07.07ZM33.51,32.43H5.87a2.71,2.71,0,1,1,2.71-2.71h0a.54.54,0,1,0,1.08,0V8.59H23.3a29.75,29.75,0,0,0,3.82,6.3.55.55,0,0,0,.77.08l.08-.08a29.34,29.34,0,0,0,3.82-6.3h1.72Z"/><path id="Path_933" data-name="Path 933" class="cls-2" d="M30.26,5.88a2.71,2.71,0,1,0-2.71,2.71h0A2.71,2.71,0,0,0,30.26,5.88Zm-4.34,0a1.63,1.63,0,1,1,1.63,1.63h0A1.63,1.63,0,0,1,25.92,5.88Z"/><path id="Path_934" data-name="Path 934" class="cls-2" d="M17.79,15.09V10.76H16.71v3.79H11.83v1.08h5.42A.54.54,0,0,0,17.79,15.09Z"/><path id="Path_935" data-name="Path 935" class="cls-2" d="M20.5,15.63h4.88V14.55H21V10.76H20v4.33a.54.54,0,0,0,.54.54Z"/><path id="Path_936" data-name="Path 936" class="cls-2" d="M25.92,17.8H20.5a.54.54,0,0,0-.54.54v4.34a.54.54,0,0,0,.54.54h5.42a.54.54,0,0,0,.54-.54V18.34A.54.54,0,0,0,25.92,17.8Zm-.54,4.34H21V18.89h4.34Z"/><path id="Path_937" data-name="Path 937" class="cls-2" d="M17.79,22.68V18.34a.54.54,0,0,0-.54-.54H11.83v1.09h4.88v3.25H11.83v1.08h5.42a.54.54,0,0,0,.54-.54Z"/><path id="Path_938" data-name="Path 938" class="cls-2" d="M25.92,26.47H11.83v1.09H25.38v2.71h1.08V27A.54.54,0,0,0,25.92,26.47Z"/><path id="Path_939" data-name="Path 939" class="cls-2" d="M28.63,18.34v4.34a.54.54,0,0,0,.54.54h2.17V22.14H29.71V18.89h1.63V17.8H29.17A.54.54,0,0,0,28.63,18.34Z"/><path id="Path_940" data-name="Path 940" class="cls-2" d="M28.63,27v3.26h1.08V27.56h1.63V26.47H29.17A.54.54,0,0,0,28.63,27Z"/></g></g></g></svg>