<svg id="Laag_1" data-name="Laag 1" xmlns="http://www.w3.org/2000/svg" viewBox="0 0 20 25"><defs><style>.cls-1{fill:#be3027;}.cls-2{fill:none;}</style></defs><g id="Artboard_2" data-name="Artboard 2"><g id="traffic-light"><path id="Path_928" data-name="Path 928" class="cls-1" d="M11,8.87a2.79,2.79,0,1,0,2.79,2.79h0A2.79,2.79,0,0,0,11,8.87Zm0,4.77a2,2,0,1,1,2-2h0A2,2,0,0,1,11,13.64Z"/><path id="Path_929" data-name="Path 929" class="cls-1" d="M11,2.52A2.78,2.78,0,1,0,13.74,5.3h0A2.78,2.78,0,0,0,11,2.52Zm0,4.76a2,2,0,1,1,2-2h0A2,2,0,0,1,11,7.28Z"/><path id="Path_930" data-name="Path 930" class="cls-1" d="M11,15.23A2.79,2.79,0,1,0,13.74,18,2.79,2.79,0,0,0,11,15.23ZM11,20a2,2,0,1,1,2-2h0A2,2,0,0,1,11,20Z"/><path id="Path_931" data-name="Path 931" class="cls-1" d="M16.52,14.83a.4.4,0,0,0,.39-.33l.79-4.77a.4.4,0,0,0-.33-.46H15.72V8.08h.8a.4.4,0,0,0,.39-.33L17.7,3a.4.4,0,0,0-.33-.46H15.72v-.8a.4.4,0,0,0-.4-.4H14.11A1.39,1.39,0,0,0,12.74.13H9.17A1.4,1.4,0,0,0,7.79,1.32H6.58a.4.4,0,0,0-.4.4h0v.8H4.6a.4.4,0,0,0-.4.4V3L5,7.75a.4.4,0,0,0,.39.33h.8V9.27H4.6a.4.4,0,0,0-.4.4v.06L5,14.5a.42.42,0,0,0,.39.34h.8v.79H4.6a.4.4,0,0,0-.4.4v.06L5,20.86a.42.42,0,0,0,.39.34h.8v.4a.4.4,0,0,0,.4.4H9v2.38a.4.4,0,0,0,.4.4h3.18a.4.4,0,0,0,.4-.4V22h2.38a.4.4,0,0,0,.4-.4v-.4h.8a.4.4,0,0,0,.39-.33l.8-4.77a.41.41,0,0,0-.34-.46H15.73v-.79Zm-.8-11.52h1.12l-.66,4h-.46Zm0,6.75h1.12l-.66,4h-.46ZM6.18,20.4H5.73l-.67-4H6.18Zm0-6.36H5.73l-.67-4H6.18Zm0-6.76H5.73l-.67-4H6.18Zm3-6.36h3.58a.59.59,0,0,1,.56.4H8.6A.61.61,0,0,1,9.17.93Zm3,23H9.76V22h2.38Zm2.79-2.78H7V2.12h8Zm1.91-4.77-.66,4h-.46v-4Z"/></g></g><rect class="cls-2" x="0.08" y="0.77" width="20" height="24"/></svg>