<svg id="Laag_1" data-name="Laag 1" xmlns="http://www.w3.org/2000/svg" viewBox="0 0 36 35"><defs><style>.cls-1{fill:none;}.cls-2{fill:#d8d8d8;}</style></defs><rect class="cls-1" x="0.08" y="0.77" width="20" height="24"/><g id="Artboard_9" data-name="Artboard 9"><g id="feedback"><g id="Group_2337" data-name="Group 2337"><g id="Group_2336" data-name="Group 2336"><path id="Path_951" data-name="Path 951" class="cls-2" d="M9.56,10.9h15a.68.68,0,0,0,0-1.36H9.56a.68.68,0,0,0,0,1.36Z"/><path id="Path_952" data-name="Path 952" class="cls-2" d="M17.71,17.7H9.55a.67.67,0,0,0-.68.67.69.69,0,0,0,.67.69h8.17a.68.68,0,0,0,0-1.36Z"/><path id="Path_953" data-name="Path 953" class="cls-2" d="M32.11,5.46H32a2.72,2.72,0,0,0-2.72-2.72H4.8A2.72,2.72,0,0,0,2.08,5.46V32a.66.66,0,0,0,.42.63.58.58,0,0,0,.26,0,.67.67,0,0,0,.48-.2l6.6-6.6H29.28A2.72,2.72,0,0,0,32,23.13V11.86l2-2h0a2.59,2.59,0,0,0,0-3.67,2.63,2.63,0,0,0-1.85-.77ZM30.63,23.13a1.36,1.36,0,0,1-1.36,1.36H9.56a.74.74,0,0,0-.49.2L3.44,30.33V5.46A1.36,1.36,0,0,1,4.8,4.1H29.28a1.36,1.36,0,0,1,1.36,1.36v.46a2.69,2.69,0,0,0-.37.3l-7.4,7.4H9.56a.68.68,0,0,0,0,1.36H21.78l-.66,3.27a.69.69,0,0,0,.54.8h.26l3.4-.68a.64.64,0,0,0,.35-.19l5-5Zm-5.77-6.06-2.2.44.44-2.2,6.18-6.17L31,10.9ZM33,8.94l-1,1L30.23,8.18l1-1A1.25,1.25,0,0,1,33,8.94Z"/></g></g></g></g></svg>