<svg id="Laag_1" data-name="Laag 1" xmlns="http://www.w3.org/2000/svg" xmlns:xlink="http://www.w3.org/1999/xlink" viewBox="0 0 20 26"><defs><style>.cls-1{fill:none;}.cls-2{clip-path:url(#clip-path);}.cls-3{fill:#be3027;}</style><clipPath id="clip-path"><rect class="cls-1" x="0.08" y="0.77" width="20" height="25"/></clipPath></defs><g class="cls-2"><path id="social-media" class="cls-3" d="M19.18,20.45A3.93,3.93,0,0,1,18,18.86a18.29,18.29,0,0,1-1.21-7.25v0a7,7,0,0,0-4.12-6.34V3.57A2.75,2.75,0,0,0,9.93.82H9.71A2.75,2.75,0,0,0,7,3.57V5.24a7,7,0,0,0-4.12,6.37,18.29,18.29,0,0,1-1.21,7.25A3.82,3.82,0,0,1,.47,20.45a.7.7,0,0,0-.39.8.73.73,0,0,0,.73.56h5.3a3.72,3.72,0,0,0,7.44,0h5.3a.73.73,0,0,0,.72-.56A.7.7,0,0,0,19.18,20.45ZM8.41,3.57a1.3,1.3,0,0,1,1.3-1.3h.22a1.3,1.3,0,0,1,1.3,1.3v1.2a7,7,0,0,0-2.82,0V3.57ZM9.82,24a2.28,2.28,0,0,1-2.27-2.22H12.1A2.28,2.28,0,0,1,9.82,24Zm2.91-3.67H2.45a5.38,5.38,0,0,0,.38-.66,18.12,18.12,0,0,0,1.46-8.09,5.53,5.53,0,0,1,11.06,0v0a18.27,18.27,0,0,0,1.46,8.06c.12.22.24.45.38.66Z"/></g><rect class="cls-1" x="0.08" y="1.77" width="20" height="24"/></svg>