<svg id="Laag_1" data-name="Laag 1" xmlns="http://www.w3.org/2000/svg" viewBox="0 0 21.89 29"><defs><style>.cls-1,.cls-3{fill:#be3027;}.cls-2,.cls-3{isolation:isolate;}.cls-3{font-size:9px;font-family:SFCompactDisplay-Regular, SF Compact Display;}</style></defs><g id="document"><g id="Group_2434" data-name="Group 2434"><g id="Group_2433" data-name="Group 2433"><path id="Path_1017" data-name="Path 1017" class="cls-1" d="M23.49,7.31l0,0v0L17.88,1.67l0,0a0,0,0,0,1,0,0h0a0,0,0,0,1,0,0,.51.51,0,0,0-.3-.06H3.66a2,2,0,0,0-1.38.56l0,0a2,2,0,0,0-.59,1.41v25a2,2,0,0,0,.59,1.41,2.05,2.05,0,0,0,1.41.59H21.55A2,2,0,0,0,23,29.93a2.05,2.05,0,0,0,.59-1.41V7.6A.72.72,0,0,0,23.49,7.31ZM18.06,3.64,21.38,7H18.93a.79.79,0,0,1-.61-.27.88.88,0,0,1-.27-.61Zm4.22,24.88a.8.8,0,0,1-.76.76H3.66a.79.79,0,0,1-.53-.2.7.7,0,0,1-.21-.53V3.49A.77.77,0,0,1,3.16,3l0,0a.82.82,0,0,1,.5-.2H16.85V6.05a2.13,2.13,0,0,0,.64,1.52A2.19,2.19,0,0,0,19,8.19h3.26Z" transform="translate(-1.66 -1.52)"/></g></g></g><g id="PDF" class="cls-2"><text class="cls-3" transform="translate(3 18)">PDF</text></g></svg>