<svg xmlns="http://www.w3.org/2000/svg" viewBox="0 0 140.78 134.98"><defs><style>.cls-1{fill:#404032;}.cls-2{fill:#fff;}.cls-3{fill:#d0c7c2;}.cls-4{fill:#bd282e;}.cls-10,.cls-5,.cls-7,.cls-9{fill:none;stroke-miterlimit:10;}.cls-5{stroke:#fff;stroke-width:2.18px;}.cls-6{fill:#29ade4;}.cls-7{stroke:#29ade4;stroke-width:0.38px;}.cls-8{fill:#231f20;}.cls-10,.cls-9{stroke:#231f20;}.cls-9{stroke-width:10.46px;}.cls-10{stroke-width:0.67px;}.cls-11{fill:#e5e2d4;}</style></defs><title>Asset 1</title><g id="Layer_2" data-name="Layer 2"><g id="Layer_1-2" data-name="Layer 1"><path class="cls-1" d="M79.56,110.3c0,12.49-9.88,22.62-22.07,22.62S35.42,122.79,35.42,110.3s9.89-22.62,22.07-22.62S79.56,97.8,79.56,110.3"/><path class="cls-2" d="M66.28,111.21a8.53,8.53,0,1,1-8.52-8.52,8.53,8.53,0,0,1,8.52,8.52"/><path class="cls-3" d="M111.4,2.14c-27.66-3.3-63.21,0-68.56,21.08-1.94,7.67,2.07,17.34-2.1,19.91-6.4,3.93-19-7.75-22.15-8.2-26-3.74-22.88,33.25-2.11,30.44,7.67-1,11.31-10.55,14.76-12.87,12.25-8.24,10.3,0,15.82,9.36S55.78,74.2,71,75.9c1.17,6.56-12.73,37.28-12.79,39.26-.1,3.47,19.82,1.76,22.57,1.67,4-.13,2.68-21.79,8.5-21,3,.41,2.63,6.27,6.46,4.85,2.23-.82,15.13-24.21,9.36-22.41,41.06.09,47.3-71.2,6.33-76.11"/><path class="cls-4" d="M39.46,40.68c.43-13.63.82-25.68,13.71-32.27C64.53,2.61,76.88,2,89.19.65c27.91-3.09,48.05,4.16,50.22,35.53-16.18,5.23-30.93,4.46-46.84,6.53-13.46,1.76-40.3,7.82-53.47,1.45Z"/><path class="cls-5" d="M38.78,42.68c4.7,3.15,28.15,4.86,45.46,1.69C97,42,123.44,41.25,132,38.91l8.52-2.35"/><path class="cls-6" d="M122.42,39.2s-5.89,8.35-13.16,8.35S96.09,43.81,96.09,39.2s5.9-8.35,13.17-8.35,13.16,8.35,13.16,8.35"/><path class="cls-7" d="M122.35,39.2s-5.86,8.29-13.1,8.29-13.1-3.71-13.1-8.29,5.87-8.29,13.1-8.29S122.35,39.2,122.35,39.2Z"/><path class="cls-2" d="M113.58,39.8c0,3.23-2.36,5.85-5.26,5.85a5.58,5.58,0,0,1-5.27-5.85A5.58,5.58,0,0,1,108.32,34c2.9,0,5.26,2.62,5.26,5.85"/><path class="cls-8" d="M110.2,38.4a2.27,2.27,0,1,1-2.26-2.5,2.4,2.4,0,0,1,2.26,2.5"/><path d="M54.78,79.61a2.54,2.54,0,0,0,2.5,2.58H73.83a2.55,2.55,0,0,0,2.51-2.58v-1A2.54,2.54,0,0,0,73.83,76L54.78,74c-1.39,0,0,3.21,0,4.63Z"/><path class="cls-9" d="M114.79,94.88c0-3.39.78-8.39,0-11.65-1.77-7.79-6.68-3.16-10.18-6.42"/><rect class="cls-8" x="63.62" y="79.39" width="5.96" height="14.67"/><rect class="cls-10" x="63.73" y="79.49" width="5.75" height="14.47"/><path class="cls-3" d="M84,87.8l12,28.54,18.68-1.19s-1.38-20.41-3.64-24.26S99.84,75.46,99.84,75.46"/><path class="cls-11" d="M54.68,60.12C64.31,65.83,76,68.41,86.85,72.89c3.54,1.46,13.18,7.35,16.44,6.78,7.12-1.25,6.09-6.76,3.08-10.69C100.9,61.85,91,58.3,84,52.39c-4.55-3.84-2-6.56-8.22-5.79-4.89.6-28.89.46-34.85-1.84"/><path class="cls-1" d="M133.36,112.35c0,12.5-9.88,22.63-22.07,22.63s-22.07-10.13-22.07-22.63,9.89-22.62,22.07-22.62,22.07,10.13,22.07,22.62"/><path class="cls-2" d="M119.66,111.21a8.53,8.53,0,1,1-8.53-8.52,8.53,8.53,0,0,1,8.53,8.52"/></g></g></svg>