<svg id="Laag_1" data-name="Laag 1" xmlns="http://www.w3.org/2000/svg" viewBox="0 0 21.89 29"><defs><style>.cls-1,.cls-3{fill:#be3027;}.cls-2,.cls-3{isolation:isolate;}.cls-3{font-size:9px;font-family:SFCompactDisplay-Regular, SF Compact Display;letter-spacing:0em;}</style></defs><g id="document-2"><g id="Group_2434-2" data-name="Group 2434-2"><g id="Group_2433-2" data-name="Group 2433-2"><path id="Path_1017-2" data-name="Path 1017-2" class="cls-1" d="M23.53,7.4l0,0v0L17.92,1.76l0,0a0,0,0,0,1,0,0h0a0,0,0,0,1,0,0,.49.49,0,0,0-.29-.06H3.7a2,2,0,0,0-1.38.56l0,0A2.09,2.09,0,0,0,1.7,3.61v25a2,2,0,0,0,2,2H21.59A2,2,0,0,0,23,30a2.09,2.09,0,0,0,.59-1.42V7.7A.8.8,0,0,0,23.53,7.4ZM18.1,3.73l3.32,3.32H19a.8.8,0,0,1-.62-.26.91.91,0,0,1-.26-.62Zm4.23,24.88a.82.82,0,0,1-.77.77H3.7a.86.86,0,0,1-.53-.21A.74.74,0,0,1,3,28.64V3.58a.77.77,0,0,1,.24-.53l0,0a.78.78,0,0,1,.5-.21H16.89V6.14a2.15,2.15,0,0,0,2.17,2.14h3.26Z" transform="translate(-1.7 -1.61)"/></g></g></g><g id="XLS" class="cls-2"><text class="cls-3" transform="translate(4 18)">XLS</text></g></svg>